<?xml version="1.0" encoding="UTF-8" standalone="no"?>
<!-- Created with Inkscape (http://www.inkscape.org/) -->

<svg
   xmlns:dc="http://purl.org/dc/elements/1.1/"
   xmlns:cc="http://creativecommons.org/ns#"
   xmlns:rdf="http://www.w3.org/1999/02/22-rdf-syntax-ns#"
   xmlns:svg="http://www.w3.org/2000/svg"
   xmlns="http://www.w3.org/2000/svg"
   xmlns:sodipodi="http://sodipodi.sourceforge.net/DTD/sodipodi-0.dtd"
   xmlns:inkscape="http://www.inkscape.org/namespaces/inkscape"
   version="1.1"
   id="svg4572"
   width="120"
   height="120"
   viewBox="0 0 120 120"
   sodipodi:docname="blank-avatar.svg"
   inkscape:version="0.92.5 (2060ec1f9f, 2020-04-08)">
  <metadata
     id="metadata4578">
    <rdf:RDF>
      <cc:Work
         rdf:about="">
        <dc:format>image/svg+xml</dc:format>
        <dc:type
           rdf:resource="http://purl.org/dc/dcmitype/StillImage" />
        <dc:title></dc:title>
      </cc:Work>
    </rdf:RDF>
  </metadata>
  <defs
     id="defs4576" />
  <sodipodi:namedview
     pagecolor="#ffffff"
     bordercolor="#666666"
     borderopacity="1"
     objecttolerance="10"
     gridtolerance="10"
     guidetolerance="10"
     inkscape:pageopacity="0"
     inkscape:pageshadow="2"
     inkscape:window-width="1920"
     inkscape:window-height="1143"
     id="namedview4574"
     showgrid="false"
     inkscape:zoom="5.3268711"
     inkscape:cx="40.098518"
     inkscape:cy="65.773331"
     inkscape:window-x="0"
     inkscape:window-y="32"
     inkscape:window-maximized="1"
     inkscape:current-layer="svg4572" />
  <path
     style="fill:#ffffff;stroke-width:0.80000001;fill-opacity:0.56084657"
     d="m 52.963182,119.55476 c -0.88,-0.20378 -3.58,-0.76696 -6,-1.25152 -5.93493,-1.18834 -12.920983,-4.1907 -19.2,-8.25149 C 3.3457233,94.260448 -5.9219867,62.878429 5.7761553,35.6 11.176191,23.007871 24.122886,10.278428 36.963182,4.936305 c 8.713113,-3.6250344 13.261787,-4.49054392 23.6,-4.49054392 13.395474,0 21.959044,2.48912272 32.800004,9.53377652 15.522594,10.0868744 25.460464,26.9622514 26.914974,45.7039644 2.60042,33.507426 -23.578734,62.748598 -57.245968,63.941648 -4.657956,0.16507 -9.18901,0.13339 -10.06901,-0.0704 z m 22.4,-6.76613 c 5.976914,-1.7043 14.338694,-5.76358 17.895534,-8.68749 l 2.69553,-2.21586 -12.41446,-4.20004 -12.41447,-4.20004 0.442091,-4.875448 c 0.414004,-4.565712 0.345322,-4.834688 -1.081067,-4.23372 -0.837737,0.352952 -3.413158,1.191976 -5.723158,1.864496 -3.768093,1.097032 -4.631907,1.097032 -8.4,0 -2.31,-0.67252 -4.866682,-1.504352 -5.681515,-1.84852 -1.361415,-0.575024 -1.458694,-0.24432 -1.2,4.07952 l 0.281515,4.705272 -10,3.470128 c -5.5,1.908568 -11.035188,3.866182 -12.300418,4.350252 l -2.300419,0.88012 2.700419,2.23033 c 3.377022,2.78915 11.29946,6.75448 16.864532,8.441 9.20053,2.78827 21.365053,2.88357 30.635886,0.24 z M 33.085796,93.702384 44.163182,89.804776 44.402278,84.866872 C 44.616824,80.435984 44.401864,79.624586 42.308736,76.964486 36.794283,69.956316 34.163182,61.634111 34.163182,51.2 c 0,-12.377638 3.797314,-22.21803 11.228721,-29.098202 C 49.959241,17.873248 55.835477,15.2 60.563182,15.2 c 4.727705,0 10.603941,2.673248 15.171279,6.901798 7.431405,6.880172 11.228725,16.720564 11.228725,29.098202 0,10.352903 -3.03923,19.883183 -8.35569,26.20144 -1.70285,2.023722 -2.044314,3.2436 -2.044314,7.303312 0,5.643584 -1.20329,4.789424 14.297964,10.149392 L 99.959096,98 103.41088,94.079032 c 4.01843,-4.564648 7.81648,-11.910496 10.0872,-19.509746 2.22919,-7.4603 2.24186,-21.637442 0.026,-29.047792 C 107.87353,26.625305 93.937876,12.689655 75.041688,7.0391535 67.706902,4.8458429 53.444101,4.8365833 46.163182,7.0204054 26.788829,12.831504 12.772743,27.057161 7.3637213,46.4 c -1.029152,3.680282 -1.435832,7.77183 -1.391531,14 0.0697,9.799146 1.518186,16.001083 5.7382497,24.569288 C 14.123551,89.868744 20.022723,97.6 21.34804,97.6 c 0.363204,0 5.645194,-1.753928 11.737756,-3.897616 z M 67.363182,80.107472 C 80.177568,74.271357 86.090146,52.036392 79.198312,35.6 71.274524,16.702475 51.303233,15.744566 42.739831,33.851293 c -9.657572,20.420273 0.537808,47.713571 17.823351,47.713571 1.98,0 5.04,-0.655832 6.8,-1.457392 z"
     id="path4584"
     inkscape:connector-curvature="0" />
</svg>
