<?xml version="1.0" encoding="UTF-8" standalone="yes"?>
<svg version="1.2" width="170" height="170" viewBox="0 0 170 170" baseProfile="tiny-ps" xmlns="http://www.w3.org/2000/svg">
  <title>bimi-svg-tiny-12-ps</title>
  <defs id="defs103"/>
  <ellipse id="path916" cx="84.494675" cy="83.072891" rx="82.463547" ry="81.041771" fill="#a5dee5" fill-opacity="1" stroke-width="0.991342"/>
  <ellipse id="path961" cx="82.72628" cy="82.247993" rx="11.058895" ry="11.41795" fill="#a5dee5" fill-opacity="1" stroke="none" stroke-opacity="1"/>
  <path d="M -0.06925491,84.972113 V -0.02788677 H 84.930735 169.93075 V 84.972113 169.97211 H 84.930735 -0.06925491 Z M 107.01934,148.61001 l 17.36636,-2.62983 -0.88881,-10.85226 c -1.01859,-12.43697 -6.35164,-36.607166 -9.76849,-44.272328 -2.2867,-5.129827 -2.32375,-5.149131 -2.82533,-1.471995 -0.27953,2.0493 1.93022,11.342123 4.91056,20.650723 2.98036,9.30861 5.82791,20.98221 6.32792,25.94134 l 0.90912,9.0166 -19.557,0.99343 c -10.756373,0.54638 -24.326917,0.76865 -30.156793,0.49396 -9.055373,-0.4267 -10.66511,-0.16676 -11.048229,1.78411 -0.254463,1.29575 0.606243,2.5885 1.989678,2.98843 4.481605,1.29556 25.1924,0.0153 42.741014,-2.64218 z M 74.245638,133.8994 c 16.848294,-15.34738 21.918028,-20.89372 21.117551,-23.10289 -0.415995,-1.14803 -6.645695,4.37392 -16.679175,14.78428 -15.240317,15.81279 -22.894333,22.45584 -25.873249,22.45584 -2.138465,0 -22.281105,-31.45302 -26.612482,-41.55578 -3.792326,-8.845435 -6.643721,-11.340349 -8.212639,-7.185877 -1.1773,3.117457 6.905663,17.172197 17.506286,30.440127 5.33126,6.67269 11.083441,14.13069 12.782642,16.57333 l 3.089447,4.44113 5.086345,-2.63671 c 2.797501,-1.4502 10.805371,-7.84625 17.795274,-14.21345 z m 59.883182,-4.0281 c 3.9213,-6.00275 20.94139,-46.071626 20.95612,-49.335097 0.0176,-3.902301 -50.27096,-21.875079 -54.23749,-19.384095 -1.842185,1.156892 2.87338,4.116248 8.36902,5.252167 21.42422,4.428276 40.27794,10.292879 44.23627,13.760047 1.13619,0.995207 -19.08545,40.624808 -23.2014,45.469278 -2.66442,3.13599 -4.84439,6.25151 -4.84439,6.92338 0,1.12416 2.72487,4.51191 3.62906,4.51191 0.21505,0 2.5068,-3.23891 5.09281,-7.19759 z M 67.073987,107.93582 c -0.298067,-0.94254 -9.086762,-3.918 -19.530445,-6.61213 C 26.829802,95.980226 17.045463,92.584126 15.037794,90.041095 13.314652,87.858466 30.57819,51.878374 37.014786,44.237373 42.12625,38.169461 42.943141,35.002503 39.720912,33.746075 36.39475,32.449122 29.158438,45.268953 20.13493,68.444518 l -8.2442,21.174019 3.127149,2.432445 c 1.719935,1.337844 12.234293,5.473162 23.365244,9.189598 27.048401,9.03099 29.619236,9.63092 28.690864,6.69524 z M 90.224048,92.390565 c 4.708636,-4.025962 5.170965,-7.297561 1.840787,-13.026035 -1.575373,-2.709907 -3.797152,-4.257616 -6.984024,-4.86512 -4.106178,-0.782748 -5.149625,-0.349666 -8.593328,3.566666 -3.060981,3.481091 -3.723991,5.24968 -3.026546,8.073341 1.102035,4.461673 3.120967,7.021504 6.700742,8.49593 4.379827,1.803952 5.661495,1.518029 10.062369,-2.244782 z M 51.932665,61.659272 C 47.078036,46.400169 43.249018,26.788491 44.81397,25.198295 c 0.461246,-0.468686 14.077998,-1.050285 30.259447,-1.292442 24.928613,-0.373062 29.485173,-0.756625 29.842233,-2.512082 0.58155,-2.859054 -7.115724,-4.155713 -19.142393,-3.224668 -9.199844,0.712205 -37.284039,4.776698 -41.138243,5.953744 -1.462779,0.44672 -1.642655,2.739244 -0.871249,11.104015 1.071383,11.61768 7.82852,41.361854 10.466217,46.07119 1.657054,2.95849 1.678253,2.951157 2.105217,-0.72823 0.23722,-2.044244 -1.743917,-10.553991 -4.402534,-18.91055 z m 97.485875,7.98054 c 0.62357,-3.290138 -8.1871,-17.331068 -21.96158,-34.998648 l -11.98418,-15.37127 -5.33002,3.032561 c -10.358691,5.893651 -38.704084,32.721954 -38.704084,36.63256 0,2.739802 7.720387,-3.932299 18.500146,-15.988163 5.779282,-6.463433 13.762958,-14.127174 17.741478,-17.030535 l 7.23367,-5.278841 8.37082,12.631028 c 4.60395,6.947066 9.99685,15.025052 11.98425,17.951083 1.98738,2.926028 4.92261,8.968543 6.52273,13.427808 2.07462,5.781641 3.52412,7.987442 5.0523,7.688398 1.17864,-0.230649 2.33716,-1.443839 2.57447,-2.695981 z" id="path109" fill="#363636" fill-opacity="1" stroke-width="1.36005"/>
</svg>
